<?xml version="1.0" standalone="no"?>
<!DOCTYPE svg PUBLIC "-//W3C//DTD SVG 20010904//EN"
 "http://www.w3.org/TR/2001/REC-SVG-20010904/DTD/svg10.dtd">
<svg version="1.0" xmlns="http://www.w3.org/2000/svg"
 width="80.000000pt" height="37.000000pt" viewBox="0 0 80.000000 37.000000"
 preserveAspectRatio="xMidYMid meet">
<metadata>
Created by potrace 1.10, written by Peter Selinger 2001-2011
</metadata>
<g transform="translate(0.000000,37.000000) scale(0.100000,-0.100000)"
fill="#000000" stroke="none">
<path d="M89 337 c-104 -70 -109 -218 -9 -288 38 -26 70 -33 70 -15 0 8 12 29
26 46 l27 31 -26 -6 c-37 -10 -87 40 -87 85 0 43 50 94 85 87 31 -5 31 -4 0
27 -14 14 -25 32 -25 41 0 21 -21 19 -61 -8z m41 -32 c0 -7 -12 -22 -27 -33
-25 -18 -28 -27 -28 -80 0 -54 3 -61 32 -86 43 -36 35 -66 -9 -35 -44 32 -68
77 -68 129 0 40 5 52 40 89 38 40 60 46 60 16z"/>
<path d="M170 346 c0 -7 9 -25 21 -40 16 -21 29 -26 63 -26 49 0 79 -18 96
-60 25 -61 -26 -120 -104 -120 -25 0 -40 -7 -55 -26 -36 -46 -29 -54 49 -54
72 0 141 23 154 52 5 11 7 11 12 0 13 -29 82 -52 154 -52 78 0 85 8 49 54 -15
19 -30 26 -54 26 -51 0 -82 16 -100 51 -33 63 13 129 89 129 36 0 48 5 65 26
36 46 29 54 -48 54 -77 0 -110 -9 -141 -40 l-20 -20 -20 20 c-31 31 -64 40
-141 40 -52 0 -69 -3 -69 -14z m176 -31 c59 -30 59 -30 95 -4 31 21 159 38
159 20 0 -18 -27 -30 -57 -26 -52 6 -122 -56 -123 -108 0 -65 52 -117 118
-117 36 0 62 -14 62 -32 0 -7 -52 -5 -122 5 -10 1 -26 9 -36 18 -36 31 -43 31
-83 3 -30 -21 -56 -29 -100 -32 -38 -3 -59 -1 -59 6 0 17 35 32 74 32 27 0 44
8 71 35 48 49 49 97 1 149 -32 35 -53 43 -128 45 -10 1 -18 7 -18 15 0 24 91
19 146 -9z"/>
<path d="M650 345 c0 -9 -11 -27 -25 -41 -31 -31 -31 -32 0 -27 35 7 85 -44
85 -87 0 -45 -50 -95 -87 -85 l-26 6 27 -31 c14 -17 26 -38 26 -46 0 -34 80
11 118 66 31 46 31 134 -1 181 -39 57 -117 100 -117 64z m68 -42 c65 -61 67
-149 5 -213 -28 -28 -40 -35 -49 -26 -9 8 -4 19 22 44 30 29 34 39 34 82 0 41
-5 54 -30 80 -31 31 -35 42 -23 53 9 10 9 10 41 -20z"/>
</g>
</svg>
